<svg xmlns="http://www.w3.org/2000/svg" viewBox="0 0 1001.59 1006.17"><defs><style>.a{fill:#898989;}.b{fill:#aaa;}.c{fill:#ffd400;}</style></defs><path class="a" d="M854.66,622.32,692.1,650.77a16.41,16.41,0,0,0-12.39,11.09l-28.53,90.57C649.41,758.08,647.62,773,642,774l-86,15.84c-9.11,1.59-15.42-6.38-12.24-15.47L721.93,255.48a16.41,16.41,0,0,1,12.24-10.64l79.72-12.6c5.44-1,17.2,7,19.11,11.76l179,448c3.19,8-8.89,19.41-18,21l-82.75,13.38c-5.61,1-10.59-1.72-12.38-6.72L867,629.05C865.25,624.05,860.27,621.34,854.66,622.32ZM728.71,560.58,818,545c8.92-1.57,15.21-11.42,12.37-19.38L785.46,399.81c-4-11.19-20.81-8.22-24.76,4.38L716.32,545.58C713.51,554.52,719.8,562.14,728.71,560.58Z" transform="translate(-46.67 -47.51)"/><path class="a" d="M380.78,705.9,218.22,734.34a16.44,16.44,0,0,0-12.39,11.1L177.3,836c-1.77,5.64-3.56,20.58-9.18,21.56l-86,15.84C73,875,66.72,867,69.9,857.94L248.05,339.06a16.37,16.37,0,0,1,12.23-10.64L340,315.82c5.44-1,17.2,7,19.11,11.75l179,448c3.19,8-8.89,19.41-18,21L437.36,810c-5.6,1-10.58-1.73-12.37-6.73l-31.84-90.61C391.36,707.62,386.38,704.92,380.78,705.9ZM254.83,644.16l89.24-15.62c8.93-1.56,15.22-11.42,12.38-19.38L311.58,483.38c-4-11.19-20.81-8.21-24.77,4.38L242.43,629.15C239.63,638.1,245.92,645.71,254.83,644.16Z" transform="translate(-46.67 -47.51)"/><path class="b" d="M390.79,715,228.23,743.46a16.4,16.4,0,0,0-12.39,11.1l-28.52,90.57a16.41,16.41,0,0,1-12.39,11.09L93.15,870.53c-9.11,1.59-15.42-6.38-12.24-15.47L258.06,348.18a16.4,16.4,0,0,1,12.24-10.65L348,323.93c5.45-.95,10.32,1.58,12.23,6.34L538.38,775c3.19,8-3.12,18.18-12.23,19.78l-81.77,14.3c-5.61,1-10.59-1.72-12.38-6.72l-28.83-80.61C401.38,716.74,396.4,714,390.79,715Zm-126-61.75,89.25-15.61c8.92-1.56,15.22-11.42,12.37-19.38L321.6,492.5c-4-11.19-20.82-8.22-24.77,4.38L252.45,638.27C249.64,647.21,255.93,654.83,264.84,653.27Z" transform="translate(-46.67 -47.51)"/><path class="b" d="M864.57,632.12,702,660.56a16.4,16.4,0,0,0-12.39,11.1L661.1,762.23a16.41,16.41,0,0,1-12.39,11.09l-81.78,14.31c-9.11,1.59-15.41-6.38-12.24-15.47L731.84,265.28a16.4,16.4,0,0,1,12.24-10.65L821.8,241c5.45-.95,10.32,1.58,12.23,6.34l178.13,444.72c3.19,8-3.12,18.18-12.23,19.78l-81.77,14.3c-5.61,1-10.59-1.72-12.38-6.72L877,638.84C875.16,633.84,870.18,631.14,864.57,632.12Zm-126-61.75,89.25-15.61c8.92-1.56,15.22-11.42,12.38-19.38L795.38,409.6c-4-11.19-20.82-8.22-24.77,4.38L726.23,555.37C723.42,564.31,729.71,571.93,738.62,570.37Z" transform="translate(-46.67 -47.51)"/><path class="c" d="M184.49,270.08l17.1-115.16,1.15-7.76a25.67,25.67,0,0,0-13.25-26.33L54.19,48.15c-5-2.65-9.77,3.53-6.38,7.7l80.91,99.84-30.07,119-1.06,4.17a33.22,33.22,0,0,0,16.49,37.36L308.93,420.94c5.2,2.71,9.81-3.87,6.14-7.88Z" transform="translate(-46.67 -47.51)"/><path class="c" d="M1041.26,89.82c-28,11.11-55.57,23-83,35.24-27.25,12.15-54.5,24.66-80.82,38.64-17.21,9-21.6,32.78-8.59,47.27l1.54,1.75,46.78,53.47L800.69,399.25c-3.87,4.62,1.84,10.63,6.62,7.5L980,289.71a28,28,0,0,0,5.86-40.93l-2.71-3.28-41.31-50,6.07-5.24c22.54-19.75,44.59-40.08,66.41-60.64q16.38-15.48,32.46-31.44C1050.65,94.27,1046.35,87.84,1041.26,89.82Z" transform="translate(-46.67 -47.51)"/><path class="c" d="M263.84,746.13,80.91,852.87c-20.5,11.54-22.59,41.83-3.69,56l4.84,3.75,72.24,56L51.83,1044.5a5.08,5.08,0,0,0,4.34,9l181-48.57c28.91-7.53,36.4-46.28,12-64l-5.3-3.88-83.11-60.93L270.16,753.87A5.06,5.06,0,0,0,263.84,746.13Z" transform="translate(-46.67 -47.51)"/><path class="c" d="M1007.84,876.84l-5.51-2.82-74-37.84,23.51-107.81a5.12,5.12,0,0,0-9.12-4.1L857.57,841a30.49,30.49,0,0,0-2.55,4.2,28.67,28.67,0,0,0,13,38.4l5.65,2.79L949.73,924l-20.37,117.66a5.1,5.1,0,0,0,9.35,3.57l80.14-128.65A28,28,0,0,0,1007.84,876.84Z" transform="translate(-46.67 -47.51)"/><path class="c" d="M692.82,70.74l-98,183.11L555,207.58l-3.1-3.6a29.69,29.69,0,0,0-50.47,9.76L383.91,553.53a5,5,0,0,0,9.18,3.94l139.42-269,37.44,60,1.17,1.86c17.54,28.29,61.62,21.26,69.2-11.56l61.86-264.5C703.43,68.28,695.47,65.82,692.82,70.74Z" transform="translate(-46.67 -47.51)"/><path class="c" d="M577.84,643.75c-2.4-5.4-10.22-3.09-9.68,2.5l18.65,178.82-48.81,6-6.2.75c-19.27,2.22-28.86,25.69-16.46,40.79L645.8,1034.71c3.93,4.68,11-.15,8.4-5.42L584.43,890.64,628,896l1.07.14a34.4,34.4,0,0,0,35.7-47.6Z" transform="translate(-46.67 -47.51)"/></svg>